<svg width="115" height="128" viewBox="0 0 115 128" xmlns="http://www.w3.org/2000/svg"><title>ÄSK Klubbmärke_enfärg_RGB</title><g fill="none" fill-rule="evenodd"><path d="M13.23 0l87.717.204 11.805 20.993s-19.945 30.165 1.628 62.98l-2.035 3.464-3.46 4.893-1.764 2.58-2.713 2.855-3.663 3.397-3.935 3.125-3.12 2.31-5.43 3.533L80.393 114l-4.613 1.904-2.986 1.223-3.935 1.358-2.51 1.223-1.9 1.087-.95.544-1.357 1.29-.95 1.154-.882 1.495-.542.95-.407 1.087-.61.544-.95-.135h-1.153l-.475-.95-1.29-1.768-.88-1.087-1.222-1.562-1.424-1.29-1.832-1.292-1.968-1.29-1.696-.884-1.695-.883-2.375-.884-2.51-.95-3.053-1.224-2.85-1.02-2.44-1.222-2.783-1.155-3.19-1.903-1.152-.883-1.628-.952-2.646-1.7-2.78-2.172-2.783-2.514-2.78-2.854-1.087-1.087-1.085-1.154-1.29-1.426-1.492-1.903-1.22-1.698-.95-1.496-1.288-2.106-1.154-1.698.136-.68S20.964 54.42 0 21.197L13.23 0z" fill="#2D68B2"/><path d="M15.06 1.834l84.463.51 10.99 19.566s-19.945 28.025 1.018 62.674v.61l-2.238 3.33-1.9 2.446-1.967 2.242-2.442 3.125-2.51 2.65-2.714 2.242-3.46 2.716-3.122 1.903-4.138 2.376-4.274 2.175-2.985 1.29-3.46 1.156-3.39 1.495-3.8 1.496-2.578 1.087-1.018.815-2.17 1.155s-4.275 3.94-5.496 6.182c0 0-1.29-2.038-2.442-3.397 0 0-1.696-2.106-4.75-3.872l-3.662-1.902-2.578-.952-2.578-1.087-3.257-1.02-2.373-1.154-2.85-1.29-2.645-1.154-1.56-.816-2.17-1.223-2.376-1.426-2.713-1.562-1.357-1.087-1.9-1.426-2.103-1.562-1.56-1.427L13.5 97.22l-1.83-1.902-1.155-1.495-1.628-2.038-1.56-2.038-.882-1.427-1.018-1.29-.678-1.223-.544-.544v-.543s19.2-32.543-1.696-63.523L15.06 1.834z" fill="#FFF"/><path d="M17.028 4.076l81.138.544 9.905 17.528s-21.485 27.364.866 62.436l.085.815-1.407 1.935-1.577 2.038-1.425 1.53-2.577 2.785-1.832 1.97-2.305 2.106-1.493 1.29-1.9 1.496-2.713 2.106-2.986 1.766-2.51 1.29-3.12 1.428-2.986 1.358-2.51 1.02-2.578 1.02-2.51 1.018-2.442 1.155-2.24 1.02-2.373 1.155-2.375 1.29s-5.223 4.28-5.563 5.368c0 0-1.628-3.533-3.392-4.484l-2.578-1.7-3.053-1.562-3.595-1.29-4.004-1.7-3.46-1.358s-14.925-7.542-14.72-8.357c0 0-5.836-4.212-5.768-4.484l-1.832-1.564-1.9-1.63-1.9-2.174s-4.612-5.57-4.476-6.25c0 0 8.616-15.287 8.073-32.95 0 0 1.967-11.55-9.362-30.302L17.03 4.076z" fill="#2D68B2"/><path d="M57.19 23.745c-.61.917-1.018 1.936-1.617 2.98l-.848 1.564-30.81 56.803 8.852.102 7.938-15.558 34.463.204 8.412 15.49 8.616-.067-34.56-60.735-.446-.783z" fill="#FFF"/><path fill="#2D68B2" d="M57.326 37.91l-12.89 24.594 26.458.204"/><path fill="#FFF" d="M54 52.313l-.745.543-1.017.816-.475.815-.272.696-.15.765-.052 1.222.203.918.307.662.508.917.61 1.02.662.662.357.203 3.663.05-.61-.764-.713-.918-.56-.662-.152-.714-.05-.764.05-.764.305-.612.51-.61.762-.41.66-.05.357.204.61.357.51.458.457.866.458.766.66 1.19 2.986-1.632v-.61l-1.017-1.428-.88-1.155-.883-.882-.95-.816-.542-.61-.543-.273-1.29-.204-1.763-.068-1.358.475M58.97 70.52l4.377.153.356 1.02.356 1.018.253.92-.1 1.222-.052 1.222-.355.97s-.713 1.12-.713 1.17c0 .05-.56.714-.56.714l-.56.56-.762.663-1.07.527-1.22.476-.916.102-1.323.034-1.254-.035-1.018-.17-1.05-.34-.85-.51-.847-.543-.78-.747-.746-.815-.508-.816-.475-.917-.372-.815-.102-.34 2.17-1.834.442-.068.34.442.44 1.02.272.576.203.51.407.407.475.578.746.713.714.408 1.05.373 2.172.068.848-.237.51-.578.508-.68.305-.815.238-.747.135-.78-.136-.75-.27-.746-.34-.78-.407-.782-.526-1.02zM48.302 18.036c.137 1.938-2.102 3.16-3.73 3.16-1.018 0-1.832-.407-2.24-1.426-.813-2.038.408-4.28 2.443-4.688 1.018-.203 2.035.204 2.74.93.525.51.83 1.224.787 2.024zM73.32 18.943c-.255 1.846-2.087 3.273-3.92 3.07-1.83-.408-2.848-2.04-2.44-3.873.61-2.242 3.866-2.65 5.506-1.238.552.515.88 1.237.853 2.04zM39.076 41.51l-2.103-1.426-1.763-1.495-1.29-1.224-.406-.815-.543-1.018-.203-1.087v-2.378l.136-2.242v-1.63s-.136-1.563-2.17-.612l-.544.68-.476 1.154-.34 1.02-.474.815-.34.61-.474-.067-.61-.543-.543-.748-.475-1.02-.27-1.222-.205-1.223-.34-1.02-.203-.883-.34-.883-.677-.815s-1.425-1.156-1.696.27l-.27.816-.07 1.155.068 1.088v1.02l-.203.95-.204.476h-.407l-1.22-.748s-2.713-2.038-3.392-3.26l-1.357-.952-1.49-.68-1.697-.203-.407.477-.475.747.07.815.066.61c.95.884 1.63 1.36 1.63 1.36l.948 1.02 1.425 1.697 1.017 1.563 1.085 1.97 1.018 1.63.882 1.97.61 1.427.34 1.02.61.475.95.407s2.782.68 2.85.68l1.288.474 2.375.476 3.46 1.087 2.103.95 2.035.75 1.425.542 1.356.135.61-.136s1.29-.884 1.358-1.97c0 0-.136-1.428-1.29-1.632l-.746-.407zM75.507 42.054s-2.985 4.28 1.832 3.805l1.084-.205 2.443-.815 2.578-1.02 1.763-.61 2.307-.748 1.357-.476 1.764-.407s2.85-.885 3.867-3.33l.34-.544.474-.883.27-1.155s.815-1.7 1.494-2.582l.95-1.494.814-1.155 1.086-1.427.882-1.36 1.29-1.222.542-1.087.542-.814s.95-1.36-.95-1.495l-.814.205-1.424.34-1.56.61-1.154 1.088L96.2 26.36l-1.562 1.563-.746.68-.882.61s-1.9.884-1.9-1.018l.07-1.156.134-.884v-2.038s-.068-1.223-1.018-1.902l-.678.68-.475.95-.542 1.63-.474 1.496-.475 1.63-.406 1.7-.272 1.018-.474.815-.408.68-.61.475-.746-.136-.272-.747-.135-1.29-.272-1.903s-.407-1.563-1.764-1.97l-.813.407-.543.477-.203 1.087.137 5.57-.136 1.427-.542 1.156s-.068 1.902-2.103 2.786l-1.29.883-.745.475-.543.544zM43.554 88.592l-.136 17.596h5.563v-5.23l8.753-4.893 7.937 10.055 5.835.204v-.34L62.143 93.62l8.208-4.96-9.022-.068-12.21 7.338-.205-7.338"/></g></svg>